<svg id="dreamer" xmlns="http://www.w3.org/2000/svg" viewBox="0 0 256 256">
<path fill="#030104" d="M184.091,248.445c0.015,0.503-5.358,2.373-12.047,1.801c-6.655-0.569-12.133,0.572-12.133-1.081
	c0-0.503,6.976-2.7,12.108-1.919C178.622,248.251,184.076,247.943,184.091,248.445z M188.059,251.364
	c-0.3-0.479-0.521-1-0.682-1.539c-0.156-0.531-0.264-1.109-0.286-1.626h-0.002c-0.004-0.055-0.014-0.081-0.021-0.141
	c-0.06-0.291-0.238-0.52-0.396-0.647c-0.326-0.274-0.631-0.384-0.927-0.494c-0.589-0.198-1.156-0.306-1.722-0.401
	c-2.26-0.342-4.484-0.412-6.713-0.545c-2.234-0.129-4.431-0.271-6.678-0.523c-2.248-0.196-4.527-0.172-6.781,0.181
	c-1.125,0.187-2.244,0.447-3.332,0.843c-1.076,0.428-2.15,0.898-3.059,1.826c-0.111,0.121-0.219,0.255-0.314,0.412
	c-0.047,0.086-0.092,0.148-0.139,0.277c-0.053,0.134-0.068,0.215-0.078,0.271c-0.021,0.145-0.023,0.278-0.018,0.41
	c-0.043,0.307-0.166,0.666-0.33,0.967c-0.223,0.417-0.532,0.803-0.893,1.145c-0.727,0.686-1.639,1.201-2.596,1.599
	c1.008-0.239,2.01-0.603,2.908-1.208c0.445-0.305,0.863-0.674,1.208-1.125c0.067-0.094,0.132-0.189,0.194-0.286
	c0.43,0.437,0.975,0.593,1.432,0.709c1.182,0.249,2.311,0.224,3.436,0.193c2.246-0.065,4.465-0.261,6.694-0.267
	c1.115-0.009,2.228,0.019,3.345,0.071c1.121,0.042,2.229-0.135,3.34-0.235c-1.111,0.078-2.226,0.23-3.336,0.164
	c-1.109-0.095-2.228-0.189-3.344-0.234l-6.691-0.229c-1.102-0.065-2.223-0.115-3.223-0.363c-0.488-0.125-0.943-0.354-1.063-0.629
	c-0.07-0.115-0.079-0.34-0.056-0.469l0.021-0.104c0.007-0.021,0.014-0.018,0.018-0.026c-0.002-0.004,0.031-0.058,0.051-0.094
	c0.051-0.08,0.117-0.166,0.195-0.249c0.659-0.682,1.678-1.166,2.664-1.541c1.002-0.391,2.059-0.666,3.131-0.868
	c2.146-0.403,4.358-0.502,6.561-0.379c1.098,0.047,2.208,0.213,3.32,0.339l3.334,0.361c2.218,0.247,4.453,0.433,6.609,0.745
	c0.535,0.079,1.068,0.178,1.54,0.329c0.229,0.074,0.452,0.177,0.554,0.265c0.06,0.045,0.051,0.058,0.049,0.04
	c0-0.003,0-0.002-0.001-0.003c0.001,0,0.003-0.009,0.005-0.054l-0.002,0.072c0,0,0.002-0.003-0.004,0.01
	c-0.029,0.095-0.211,0.262-0.395,0.406c-0.193,0.146-0.414,0.288-0.643,0.43c-0.459,0.283-0.951,0.552-1.438,0.886
	c0.589,0.039,1.164-0.026,1.736-0.171c0.286-0.071,0.571-0.172,0.853-0.317c0.072-0.038,0.146-0.078,0.219-0.122
	c0.088,0.236,0.18,0.471,0.287,0.701c0.269,0.564,0.603,1.1,1.012,1.568c0.807,0.955,1.969,1.572,3.152,1.683
	C189.611,253.078,188.645,252.327,188.059,251.364z M37.898,246.854c-2.131-2.301-11.53-0.027-17.15-0.994
	c-5.826-1.002-13.295,2.72-20.748,2.964v7.487L25.75,256C35.07,256,40.448,249.605,37.898,246.854z M171.688,226.062
	c0.297-2.812-14.26-3.938-28.812-2.25c-7.74,0.898-24.64,2.188-30.918,1.754c-6.43-0.445-15.109-0.037-15.504,1.691
	c-0.881,3.859,14.299,3.577,22.252,2.803C129.859,228.973,171.283,229.893,171.688,226.062z M253.116,255.995
	c-0.558-0.451-0.993-1.034-1.421-1.606c-0.422-0.58-0.816-1.18-1.2-1.785c-0.604-0.959-1.172-1.937-1.728-2.927
	c-0.395,0.577-0.908,0.989-1.433,1.343c-1.25,0.785-2.588,1.326-3.955,1.756c1.271-0.654,2.542-1.33,3.606-2.227
	c0.523-0.439,1.025-0.939,1.252-1.492c0.057-0.138,0.089-0.271,0.098-0.395c0.01-0.145,0.006-0.314-0.009-0.469
	c-0.028-0.315-0.101-0.625-0.21-0.918c-0.448-1.178-1.465-2.051-2.674-2.531c-1.209-0.498-2.569-0.659-3.928-0.691
	c-2.731-0.053-5.502,0.492-8.197,1.225c-1.35,0.375-2.688,0.804-4.012,1.275c-1.338,0.451-2.588,1.027-4.049,1.49
	c-2.824,0.877-5.658,1.414-8.504,1.904c-2.846,0.475-5.695,0.859-8.574,1.139c-0.724,0.066-1.441,0.128-2.184,0.171
	c-0.711,0.038-1.391,0.087-2.08,0.16c-1.372,0.133-2.729,0.341-4.023,0.677c-1.289,0.336-2.537,0.805-3.539,1.483
	c-1,0.663-1.699,1.603-1.688,2.442l-2.517-0.051c0.011-1.01,0.408-1.961,0.932-2.689c0.529-0.742,1.186-1.313,1.867-1.776
	c1.375-0.919,2.854-1.442,4.318-1.825c1.471-0.377,2.947-0.599,4.418-0.734c0.73-0.063,1.478-0.104,2.192-0.131
	c0.685-0.03,1.39-0.08,2.09-0.138c2.808-0.233,5.627-0.577,8.42-1.008c2.788-0.438,5.581-0.951,8.231-1.716
	c1.041-0.309,2.156-0.73,3.289-1.104c-7.197-2.146-14.499-3.936-21.883-5.34c-8.172-1.656-16.426-2.883-24.672-4.171
	c1.895,1.925,4.289,3.347,6.866,4.177c-2.938-0.893-5.67-2.552-7.717-4.873c-1.951-2.188-3.28-4.901-3.985-7.74
	c-0.193,0.273-0.455,0.439-0.701,0.615c-0.342,0.224-0.701,0.402-1.065,0.566c-0.731,0.323-1.487,0.577-2.252,0.791
	c-1.53,0.428-3.093,0.708-4.662,0.904c1.562-0.252,3.11-0.588,4.612-1.065c0.752-0.239,1.49-0.519,2.193-0.858
	c0.352-0.172,0.694-0.359,1.008-0.582c0.303-0.211,0.627-0.496,0.711-0.771c0.063-0.688-0.317-1.432-0.869-1.91
	c-0.551-0.506-1.24-0.869-1.953-1.158c-1.439-0.572-2.985-0.887-4.532-1.127c-6.228-0.84-12.571-0.789-18.876-0.595
	c-6.307,0.131-12.598,0.817-18.906,1.333c-3.153,0.271-6.307,0.539-9.468,0.756c-3.154,0.196-6.345,0.436-9.524,0.225
	c-3.152-0.123-6.31-0.157-9.45,0.029c-1.569,0.1-3.135,0.25-4.672,0.528c-1.519,0.292-3.085,0.665-4.314,1.502
	c-0.553,0.386-0.954,0.919-1.006,1.54h0.01c-0.006,0.042-0.02,0.08-0.027,0.122c0,0.014-0.006,0.026-0.005,0.04
	c-0.028,0.707,0.315,1.363,0.854,1.855c1.106,0.986,2.658,1.467,4.155,1.836c3.05,0.7,6.219,0.898,9.366,1.008
	c6.311,0.152,12.637-0.127,18.948-0.534c6.326-0.386,12.655-0.294,18.98-0.472c-6.321,0.246-12.66,0.211-18.964,0.676
	c-6.304,0.543-12.631,0.984-18.977,0.842c-3.168-0.087-6.354-0.26-9.485-0.952c-1.544-0.378-3.148-0.827-4.442-1.948
	c-0.315-0.277-0.59-0.634-0.783-1.029c-0.306,0.85-0.732,1.625-1.239,2.348c-0.52,0.758-1.146,1.428-1.821,2.042l0.001,0.009
	c-0.004,0-0.008,0.001-0.012,0.001c-0.316,0.287-0.64,0.566-0.975,0.829c-2.135,1.641-4.636,2.721-7.188,3.51
	c2.546-0.811,5.035-1.912,7.146-3.562c0.307-0.237,0.598-0.494,0.88-0.762c-4.84,0.479-9.675,1.039-14.499,1.679
	c-0.639,1.907-3.853,2.165-3.853,2.165v6.998h0.804c1.126,0,0.666,0.009,0.666,0.916l0.047,0.727c0.274,0.35,0.491,0.655,0.67,0.934
	c1.552,0.609,2.742,1.488,3.289,1.963c2.475,0.801,4.918,1.095,6.006,1.768c0.951,0.588,1.145,1.678,1.206,2.112
	c0.778,0.178,0.49,1.428,0.515,1.688l40.647,1.57H49.311c0,0.001,0,0.001,0,0.002l-0.554-0.004
	c-0.011-0.203-0.421-0.546-0.765-0.794l-1.122-0.812c-0.751-0.561-1.479-1.186-2.109-1.912c-0.61-0.695-1.121-1.481-1.526-2.322
	c-0.25,0.74-0.596,1.441-1.022,2.08c-1.423,2.13-3.793,3.539-6.221,3.763c2.316-0.748,4.226-2.319,5.351-4.308
	c0.567-0.985,0.939-2.086,1.025-3.166c0.032-0.41-0.018-0.811-0.104-1.209c0-0.002-0.001-0.004-0.001-0.006
	c-0.026-0.119-0.04-0.239-0.075-0.358c-0.149-0.536-0.354-1.047-0.633-1.501c-1.094-1.885-3.491-2.486-5.796-2.695
	c-2.343-0.216-4.759-0.156-7.176-0.158c-2.419,0.019-4.856-0.016-7.286-0.179c-2.352-0.167-4.701,0.052-7.03,0.521
	c-4.64,0.922-9.273,2.752-14.229,2.966l-0.077-0.996c2.374-0.206,4.685-0.75,6.998-1.402c2.311-0.651,4.629-1.396,7.04-1.888
	c2.401-0.506,4.905-0.762,7.381-0.604c2.395,0.131,4.792,0.154,7.206,0.172c2.414,0.022,4.84-0.021,7.311,0.228
	c0.739,0.08,1.486,0.196,2.229,0.376c7.233-1.841,14.539-3.354,21.89-4.611c-0.365-0.123-0.713-0.345-0.746-0.769
	c-0.062-0.819,0.586-7.802,0.651-10.292c0.008-0.314-0.373-0.73-0.372-0.875c0.007-1.024,0.044-2.557-0.238-2.881
	c0.047,0.442,0.065,0.92,0.091,1.09c0.032,0.213-0.115,0.518-0.222,0.628c-0.29,0.298-0.892,0.968-1.236,0.871
	c-0.042,0.239-0.083,0.461-0.131,0.624c-0.069,0.277-0.303,0.521-0.85,0.537c-0.31,0.009-0.28-0.748-0.28-1.144
	c-0.136,0.981-0.5,1.158-0.761,1.172c-0.225,0.012-0.75,0.216-0.632-1.172c-0.149,0.888-0.446,0.997-0.853,0.981
	c-0.164-0.006-0.516,0.031-0.205-1.203c-0.186,0.891-0.436,0.906-0.952,0.812c-0.281-0.109-0.119-1.589-0.391-2.156
	c-0.091-0.189-0.296-0.101-0.511-0.145c-0.161-0.184-0.127-1.307-0.224-1.465c-0.259-0.426-0.326-4.225-0.305-8.691
	c-1.557-1.004-3.22-2.167-3.414-2.669c-0.374-0.968,0.257-3.567,0.446-4.456s-0.793-0.906-1.56-1.782s-0.46-12.616,0-13.188
	s3.464-0.718,4.581-0.802c0.474-0.036,1.052-0.87,1.658-1.843c0.003-0.14,0.074-0.395,0.024-0.446
	c-0.13-0.137-0.458,0.058-0.576-0.103c-0.073-0.102,0.149-0.323,0.081-0.435c-0.072-0.118-0.434-0.123-0.499-0.254
	c-0.067-0.135,0.233-0.356,0.181-0.541c-0.043-0.155-0.441-0.269-0.474-0.456c-0.021-0.113,0.372-0.253,0.355-0.377
	c-0.022-0.156-0.449-0.298-0.464-0.466c-0.01-0.12,0.393-0.283,0.385-0.408c-0.01-0.147-0.431-0.262-0.438-0.417
	c-0.006-0.145,0.362-0.289,0.358-0.438c-0.002-0.131-0.378-0.264-0.378-0.396c-0.001-0.124,0.319-0.191,0.319-0.316
	c0.001-0.119-0.318-0.299-0.317-0.418c0.002-0.112,0.295-0.105,0.297-0.218s-0.286-0.346-0.283-0.458
	c0.004-0.113,0.379-0.184,0.382-0.298c0.003-0.098-0.364-0.239-0.36-0.338c0.006-0.151,0.392-0.224,0.399-0.377
	c0.008-0.146-0.362-0.372-0.353-0.515c0.008-0.147,0.383-0.193,0.393-0.34c0.008-0.125-0.351-0.353-0.342-0.476
	c0.011-0.149,0.392-0.215,0.402-0.356c0.011-0.144-0.349-0.36-0.337-0.496c0.005-0.057,0.191-0.09,0.285-0.135l-0.142-0.07
	c-0.473-0.239-0.748-0.698-0.833-1.209c-6.328-4.34-10.491-11.615-10.491-19.853c0-5.307,1.747-10.2,4.667-14.185l-6.088-7.633
	c-0.217,0.175-0.48,0.293-0.781,0.293c-0.702,0-1.271-0.567-1.271-1.271s0.569-1.271,1.271-1.271c0.702,0,1.271,0.568,1.271,1.271
	c0,0.306-0.122,0.576-0.303,0.794l7.347,6.028c4.41-4.952,10.812-8.095,17.951-8.095c13.269,0,24.065,10.797,24.065,24.065
	c0,11.769-8.497,21.572-19.674,23.644v0.551c0,0,1.279,2.574,1.918,3.923c0.639,1.349,0.402,2.481,0.584,3.802
	c0.204,1.479,1.694,5.561,1.838,6.161c0.285,1.185,0.903,25.331-0.729,24.007c0.622,1.59,0.717,3.885,0.704,5.626
	c-0.037,4.734,0.927,8.203,0.927,9.005c0,0.18-0.024,0.346-0.061,0.502c4.846-0.619,9.703-1.158,14.563-1.615
	c0.638-0.62,1.212-1.305,1.686-2.053c0.672-1.119,1.159-2.451,1.087-3.678h0.034c0.037-0.87,0.631-1.636,1.276-2.072
	c1.403-0.959,3.006-1.324,4.569-1.642c1.575-0.296,3.163-0.459,4.75-0.567c3.176-0.209,6.354-0.192,9.524-0.089
	c3.145,0.191,6.284-0.053,9.439-0.263c3.151-0.229,6.301-0.51,9.45-0.792c6.301-0.535,12.603-1.267,18.955-1.399
	c3.168-0.078,6.34-0.098,9.514-0.003c3.172,0.095,6.354,0.298,9.494,0.861c1.568,0.289,3.138,0.649,4.628,1.288
	c0.737,0.326,1.469,0.725,2.065,1.314c0.541,0.539,0.922,1.28,0.885,2.094l0.009-0.002c0.618,2.996,1.92,5.855,3.921,8.181
	c0.225,0.264,0.461,0.517,0.703,0.765l0.014-0.101c8.303,0.978,16.576,2.198,24.809,3.694c4.106,0.789,8.199,1.67,12.262,2.676
	c3.529,0.863,7.033,1.854,10.494,2.962c1.303-0.407,2.617-0.778,3.949-1.097c2.832-0.656,5.748-1.136,8.736-0.972
	c1.486,0.093,3.002,0.388,4.406,1.063c1.379,0.658,2.706,1.847,3.091,3.447c0.103,0.39,0.147,0.791,0.142,1.188
	c-0.002,0.104-0.018,0.21-0.026,0.313l0.03-0.016c0.526,1.311,1.094,2.616,1.703,3.896c0.309,0.639,0.627,1.271,0.975,1.891
	C252.26,254.864,252.617,255.484,253.116,255.995z M54.85,186.351c0.4-0.557,0.791-0.979,1.149-1.075
	c0.332-0.088,0.723-0.145,1.122-0.182c0.394-0.479,0.814-0.925,1.221-1.271c1.879-1.591,3.75-2.05,3.75-2.05v-0.178
	c-2.217-0.287-4.346-0.859-6.333-1.71c-0.345,0.13-0.72,0.142-1.072,0.03c-0.086,0.073-0.183,0.15-0.187,0.215
	c-0.008,0.105,0.277,0.174,0.271,0.278c-0.008,0.133-0.421,0.306-0.429,0.437c-0.007,0.135,0.391,0.228,0.384,0.359
	c-0.006,0.14-0.379,0.197-0.384,0.337c-0.005,0.112,0.355,0.306,0.352,0.417c-0.005,0.141-0.348,0.238-0.352,0.377
	c-0.004,0.146,0.329,0.334,0.327,0.477c-0.003,0.148-0.325,0.295-0.327,0.438c-0.001,0.128,0.318,0.253,0.318,0.377
	c0,0.145-0.32,0.323-0.318,0.456c0.002,0.14,0.327,0.231,0.331,0.358c0.004,0.131-0.337,0.258-0.331,0.377
	c0.006,0.117,0.361,0.229,0.37,0.334c0.012,0.139-0.387,0.349-0.37,0.461c0.03,0.207,0.479,0.279,0.524,0.38
	C54.905,186.071,54.872,186.218,54.85,186.351z M58.392,223.613c0.021-0.041-0.005-0.12-0.041-0.205
	c-0.059,0.136-0.119,0.271-0.162,0.418C58.274,223.747,58.362,223.673,58.392,223.613z M60.9,237.322c-0.002,0-0.105,0-0.256-0.014
	c-7.34,1.275-14.632,2.809-21.848,4.66c0.271,0.083,0.541,0.172,0.809,0.28c1.212,0.479,2.373,1.358,3.054,2.537
	c0.348,0.58,0.589,1.204,0.758,1.832c0.045,0.149,0.057,0.312,0.086,0.469l0.043-0.008c0.024,0.479,0.092,0.894,0.201,1.312
	c0.1,0.428,0.242,0.84,0.397,1.248c0.323,0.812,0.759,1.58,1.301,2.277c0.538,0.702,1.18,1.328,1.873,1.912l1.069,0.876
	c0.181,0.153,0.362,0.31,0.538,0.496c0.156,0.177,0.352,0.403,0.379,0.759l9.435-1.439c-0.043-0.307-0.318-2.252,0.438-2.328
	c-0.466-0.19-0.223-2.342,0.311-3.144c0.131-0.196,0.251-0.389,0.364-0.575c0.092-0.908,0.682-2.326,0.682-2.921l-0.237-0.804
	c0-0.812-0.171-0.844,0.603-0.841V237.322z M68.354,244.318l-0.034-6.903l-2.709-0.31l-2.37,0.275l0.036,6.526h0.85
	c1.126,0,0.666,0.009,0.666,0.916l0.047,0.727c0.514,0.652,0.842,1.171,1.042,1.589c0.644,0.27,1.252,0.551,1.708,0.771
	c0.205-0.75,0.48-1.54,0.48-1.945l-0.237-0.804C67.833,244.375,67.669,244.32,68.354,244.318z M68.694,146.979
	c0.706-0.086,2.882-0.1,3.495-0.266c0.053,0.637-0.263,1.617,0.274,1.938c1.202,0.719,4.516,1.644,5.126,2.352
	c0.396,0.458-2.7,0.898-4.024,1.165c0.088,0.562,0.801,1.458,0.477,1.747c-0.386,0.343-1.465-0.104-1.794,0.268
	c-0.223,0.25-0.065,3.357,0.143,3.92c0.465,1.248,2.574,0.83,3.597,1.248c0.527,0.217-0.18,1.469,0.294,1.69
	c0.824,0.386,1.246,1.289,1.246,1.974c0,0.754-0.341,1.816-0.367,2.508c-0.027,0.703,1.144,4.051,0.005,5.283
	c-1.689,1.827-4.444,2.979-7.574,3.566v4.453c9.77-2.034,17.133-10.707,17.133-21.07c0-11.869-9.656-21.523-21.523-21.523
	c-11.868,0-21.523,9.654-21.523,21.523c0,7.336,3.696,13.82,9.317,17.707c0.365-0.09,0.755-0.064,1.107,0.113l1.996,1.014
	c0.418,0.212,0.7,0.592,0.818,1.028c1.634,0.685,3.376,1.151,5.186,1.413l0.016-4.368c-6.911-1.079-11.922-7.104-12.34-14.372
	c-0.187-3.239,0.834-5.67,0.7-8.12c0,0,0.875-0.502,3.759-0.478c-0.371-0.635,0.119-1.623,0.212-2.437
	c0.975-0.022,2.498-0.221,4.043-0.396c-0.043-0.42-0.746-1.094-0.729-1.637c0.424-0.029,4.14,0.691,4.504,0.691
	c0.672-0.001,1.286,0.245,1.616,0.393c0.265-1.113,2.233-1.945,3.187-3.852C67.029,145.448,67.827,146.198,68.694,146.979z
	 M245.029,248.262c0-2.764-10.613-2.146-18.612,1.77c-10.797,5.283-27.92,2.306-26.771,5.965L220.857,256
	C235.992,255.534,245.029,251.525,245.029,248.262z"/>
<path fill="#030104" d="M158.547,195.424c-0.53,0.028-0.936,0.48-0.907,1.01c0.001,0.012,0.006,0.022,0.006,0.032
	c-0.805,0.35-1.602,0.71-2.391,1.104c-1.058,0.533-2.102,1.071-3.126,1.834c-0.261,0.2-0.513,0.403-0.781,0.72
	c-0.146,0.181-0.219,0.292-0.311,0.416l-0.264,0.372c-0.134,0.198-0.25,0.41-0.378,0.612c-1.377-0.687-3.011-1.023-4.728-1.023
	c-0.69,0-1.405,0.074-2.125,0.213l0.003-0.019c0.035-0.162,0.135-0.396,0.245-0.616c0.473-0.9,1.144-1.806,1.82-2.682
	c0.509-0.649,1.048-1.293,1.595-1.92c0.203,0.082,0.441,0.099,0.665,0.018c0.484-0.174,0.733-0.704,0.562-1.188
	c-0.175-0.483-0.705-0.731-1.189-0.558c-0.482,0.171-0.731,0.703-0.557,1.184c0.001,0.011,0.01,0.02,0.013,0.03
	c-0.647,0.548-1.285,1.102-1.908,1.685c-0.833,0.786-1.65,1.576-2.39,2.567c-0.185,0.259-0.362,0.517-0.523,0.88
	c-0.087,0.209-0.119,0.337-0.169,0.474l-0.145,0.417c-0.029,0.098-0.051,0.198-0.079,0.296c-4.241,1.519-8.135,5.086-8.135,9.17
	c0,4.928,6.107,8.892,10.837,9.605c0.482,0.073,1.662,6.061,1.662,6.723c0,0,1.09-0.361,1.294-1.379
	c0.401-2.004,0.129-5.4,0.587-5.525c4.83-1.316,9.491-6.757,7.771-9.54c-1.023-1.655-1.082-3.735-1.841-5.47
	c-0.368-0.841-0.897-1.541-1.529-2.133c0.114-0.278,0.219-0.559,0.348-0.834l0.344-0.689c0.08-0.146,0.249-0.351,0.425-0.535
	c0.734-0.752,1.67-1.451,2.596-2.117c0.7-0.492,1.421-0.969,2.152-1.43c0.178,0.146,0.409,0.23,0.655,0.217
	c0.531-0.028,0.937-0.482,0.908-1.012C159.529,195.802,159.078,195.396,158.547,195.424z"/>
<path fill="#030104" d="M125.97,214.188c-0.298,0.016-0.525,0.27-0.509,0.566c0,0.007,0.003,0.013,0.003,0.018
	c-0.452,0.196-0.899,0.398-1.342,0.62c-0.593,0.299-1.179,0.601-1.754,1.029c-0.146,0.112-0.288,0.226-0.438,0.403
	c-0.083,0.102-0.123,0.164-0.174,0.233l-0.148,0.209c-0.075,0.111-0.141,0.23-0.212,0.344c-0.772-0.386-1.689-0.574-2.653-0.574
	c-0.388,0-0.789,0.041-1.193,0.119l0.002-0.011c0.02-0.091,0.076-0.222,0.137-0.346c0.266-0.505,0.642-1.013,1.022-1.505
	c0.285-0.364,0.588-0.726,0.895-1.077c0.114,0.046,0.248,0.056,0.373,0.01c0.272-0.098,0.412-0.396,0.315-0.667
	c-0.098-0.271-0.396-0.41-0.667-0.312c-0.271,0.096-0.411,0.395-0.312,0.664c0.001,0.006,0.006,0.011,0.007,0.017
	c-0.363,0.308-0.721,0.618-1.071,0.945c-0.468,0.441-0.926,0.885-1.341,1.441c-0.104,0.145-0.203,0.29-0.293,0.493
	c-0.049,0.117-0.067,0.189-0.095,0.267l-0.082,0.233c-0.016,0.055-0.028,0.111-0.044,0.166c-2.38,0.853-4.565,2.854-4.565,5.146
	c0,2.766,3.427,4.989,6.082,5.391c0.271,0.041,1.731-0.032,1.988-0.103c2.711-0.738,5.327-3.792,4.361-5.354
	c-0.574-0.929-0.607-2.097-1.033-3.069c-0.207-0.472-0.503-0.865-0.858-1.197c0.064-0.156,0.123-0.313,0.195-0.468l0.193-0.387
	c0.045-0.083,0.14-0.197,0.239-0.301c0.412-0.422,0.937-0.814,1.457-1.188c0.393-0.275,0.797-0.543,1.208-0.802
	c0.1,0.081,0.229,0.129,0.368,0.121c0.298-0.016,0.525-0.271,0.51-0.567C126.521,214.399,126.268,214.171,125.97,214.188z"/>
</svg>
