<svg id="python" xmlns="http://www.w3.org/2000/svg" viewBox="0 0 256 256">
<path fill="#56638B" d="M93.275,75.622c0.117-6.467,13.671-16.998,35.286-16.998c21.614,0,32.144,10.162,32.144,18.844
	c0,8.684,0,30.113,0,36.024c0,6.929-8.59,14.041-14.225,14.041c-4.248,0-24.2,0.1-31.034,0c-12.563-0.186-22.726,9.977-22.726,20.88
	c0,5.911-0.185,13.111-0.185,13.111s-7.943,0-16.625,0c-8.683,0-17.367-13.485-17.182-34.361
	c0.186-20.875,8.499-32.144,16.812-32.514c11.454-0.554,17.361-0.373,17.361-0.373S93.159,82.09,93.275,75.622z"/>
<path fill="#5A70A7" d="M154.297,62.5c-6.396-4.348-15.296-6.645-25.736-6.645c-10.096,0-19.708,2.283-27.065,6.431
	c-6.801,3.833-10.91,8.8-10.991,13.287c-0.083,4.521-0.234,11.923-0.317,15.906c-2.91-0.006-7.841,0.067-14.771,0.402
	c-5.308,0.236-10.185,3.772-13.734,9.958c-3.656,6.369-5.636,15.119-5.726,25.301c-0.123,13.882,3.643,26.042,10.072,32.529
	c3.002,3.027,6.418,4.628,9.882,4.628h19.327l0.069-2.698c0.002-0.073,0.186-7.306,0.186-13.185c0-9.648,9.167-18.111,19.617-18.111
	c0.099,0,0.197,0.001,0.297,0.002c2.058,0.031,5.388,0.046,10.18,0.046c5.207,0,11.062-0.019,15.337-0.031
	c2.518-0.008,4.513-0.014,5.558-0.014c3.471,0,7.624-1.929,11.11-5.161c3.74-3.47,5.887-7.716,5.887-11.652V77.47
	C163.478,71.921,160.13,66.465,154.297,62.5z M157.936,113.492c0,5.477-7.447,11.27-11.454,11.27c-1.048,0-3.05,0.006-5.575,0.014
	c-4.271,0.014-10.121,0.031-15.32,0.031c-4.699,0-8.097-0.016-10.099-0.045c-6.772-0.106-13.223,2.451-18.141,7.155
	c-4.701,4.497-7.397,10.509-7.397,16.496c0,3.596-0.07,7.711-0.124,10.341H75.911c-1.952,0-4.008-1.033-5.945-2.987
	c-2.457-2.478-4.537-6.224-6.019-10.832c-1.659-5.154-2.504-11.292-2.447-17.747c0.103-11.664,2.771-18.724,4.99-22.591
	c2.534-4.415,5.877-7.032,9.184-7.179c6.794-0.328,11.617-0.397,14.468-0.397c1.321,0,39.342,0.031,39.342,0.031v-5.542H95.732
	c0.083-4.004,0.233-11.339,0.314-15.837c0.075-4.143,11.561-14.276,32.515-14.276c11.781,0,18.804,3.093,22.621,5.688
	c4.292,2.917,6.753,6.702,6.753,10.385V113.492z M115.905,76.268c0,3.826-3.102,6.927-6.928,6.927c-3.827,0-6.928-3.102-6.928-6.927
	c0-3.827,3.101-6.929,6.928-6.929C112.802,69.339,115.905,72.441,115.905,76.268z"/>
<path fill="#D4C155" d="M165.724,166.406c0,0,5.908,0.183,17.362-0.372c8.313-0.37,16.627-11.639,16.812-32.517
	c0.185-20.875-8.499-34.362-17.182-34.362c-8.684,0-16.628,0-16.628,0s-0.185,7.202-0.185,13.114
	c0,10.903-10.166,21.064-22.729,20.88c-6.835-0.1-26.787,0.046-31.035,0c-6.764-0.073-14.226,7.132-14.226,14.042
	c0,5.911,0,27.34,0,36.022c0,8.684,10.531,18.845,32.146,18.845c21.614,0,35.173-10.53,35.291-16.997
	C165.467,178.594,165.724,166.406,165.724,166.406z"/>
<path fill="#DED66A" d="M192.599,101.014c-3.001-3.027-6.418-4.628-9.881-4.628H163.39l-0.069,2.7
	c-0.001,0.073-0.186,7.304-0.186,13.184c0,9.647-9.169,18.11-19.621,18.11c-0.1,0-0.198-0.001-0.297-0.001
	c-1.665-0.024-4.206-0.037-7.771-0.037c-3.806,0-8.233,0.014-12.139,0.025c-3.241,0.01-6.303,0.02-8.479,0.02
	c-1.227,0-2.096-0.004-2.657-0.01h-0.132c-8.369,0-16.895,8.484-16.895,16.813v36.022c0,5.549,3.346,11.006,9.181,14.971
	c6.396,4.349,15.296,6.646,25.736,6.646c10.096,0,19.709-2.284,27.067-6.433c6.803-3.833,10.913-8.8,10.994-13.287
	c0.081-4.521,0.233-11.922,0.315-15.905c0.017,0,0.03,0,0.048,0c2.911,0,7.833-0.07,14.726-0.403
	c5.308-0.236,10.186-3.772,13.733-9.957c3.656-6.37,5.636-15.119,5.725-25.302C202.794,119.66,199.028,107.501,192.599,101.014z
	 M197.129,133.494c-0.104,11.666-2.771,18.727-4.99,22.594c-2.534,4.415-5.877,7.032-9.186,7.179
	c-6.793,0.328-11.617,0.398-14.468,0.398c-0.751,0-39.067-0.045-39.067-0.045v5.542h33.477c-0.083,4.002-0.233,11.348-0.313,15.851
	c-0.076,4.143-11.564,14.275-32.521,14.275c-11.781,0-18.804-3.093-22.621-5.688c-4.292-2.916-6.753-6.701-6.753-10.386v-36.022
	c0-5.268,6.047-11.271,11.352-11.271v0.001h0.072c0.582,0.006,1.47,0.009,2.717,0.009c2.185,0,5.25-0.009,8.496-0.019
	c3.902-0.013,8.324-0.026,12.122-0.026c3.537,0,6.053,0.012,7.689,0.036c6.773,0.104,13.225-2.451,18.143-7.155
	c4.702-4.497,7.399-10.509,7.399-16.496c0-3.596,0.07-7.712,0.124-10.342h13.917c1.952,0,4.008,1.034,5.945,2.988
	c2.455,2.478,4.537,6.224,6.02,10.833C196.34,120.903,197.185,127.04,197.129,133.494z M142.717,184.415
	c0-3.824,3.102-6.927,6.928-6.927s6.928,3.103,6.928,6.927c0,3.827-3.103,6.93-6.928,6.93
	C145.818,191.345,142.717,188.242,142.717,184.415z"/>
</svg>
